HIERARCHY
ROOT hip
{
  OFFSET 0 0 0
  CHANNELS 6 Xposition Yposition Zposition Zrotation Yrotation Xrotation
  JOINT abdomen
  {
    OFFSET 0 20.6881 -0.73152
    CHANNELS 3 Zrotation Xrotation Yrotation
    JOINT chest
    {
      OFFSET 0 11.7043 -0.48768
      CHANNELS 3 Zrotation Xrotation Yrotation
      JOINT neck
      {
        OFFSET 0 22.1894 -2.19456
        CHANNELS 3 Zrotation Xrotation Yrotation
        JOINT head
        {
          OFFSET -0.24384 7.07133 1.2192
          CHANNELS 3 Zrotation Xrotation Yrotation
          JOINT leftEye
          {
            OFFSET 4.14528 8.04674 8.04672
            CHANNELS 3 Zrotation Xrotation Yrotation
            End Site
            {
              OFFSET 1 0 0
            }
          }
          JOINT rightEye
          {
            OFFSET -3.6576 8.04674 8.04672
            CHANNELS 3 Zrotation Xrotation Yrotation
            End Site
            {
              OFFSET 1 0 0
            }
          }
        }
      }
      JOINT rCollar
      {
        OFFSET -2.68224 19.2634 -4.8768
        CHANNELS 3 Zrotation Xrotation Yrotation
        JOINT rShldr
        {
          OFFSET -8.77824 -1.95073 1.46304
          CHANNELS 3 Zrotation Xrotation Yrotation
          JOINT rForeArm
          {
            OFFSET -28.1742 -1.7115 0.48768
            CHANNELS 3 Zrotation Xrotation Yrotation
            JOINT rHand
            {
              OFFSET -22.5879 0.773209 7.07136
              CHANNELS 3 Zrotation Xrotation Yrotation
              JOINT rThumb1
              {
                OFFSET -1.2192 -0.487915 3.41376
                CHANNELS 3 Zrotation Xrotation Yrotation
                JOINT rThumb2
                {
                  OFFSET -3.37035 -0.52449 3.41376
                  CHANNELS 3 Zrotation Xrotation Yrotation
                  End Site
                  {
                    OFFSET -1.78271 -1.18214 1.43049
                  }
                }
              }
              JOINT rIndex1
              {
                OFFSET -7.75947 0.938293 5.60832
                CHANNELS 3 Zrotation Xrotation Yrotation
                JOINT rIndex2
                {
                  OFFSET -2.54057 -0.884171 1.56538
                  CHANNELS 3 Zrotation Xrotation Yrotation
                  End Site
                  {
                    OFFSET -1.62519 -0.234802 1.16502
                  }
                }
              }
              JOINT rMid1
              {
                OFFSET -8.24714 1.18213 3.41376
                CHANNELS 3 Zrotation Xrotation Yrotation
                JOINT rMid2
                {
                  OFFSET -3.10165 -0.590103 1.0647
                  CHANNELS 3 Zrotation Xrotation Yrotation
                  End Site
                  {
                    OFFSET -2.48547 -0.328903 0.83742
                  }
                }
              }
              JOINT rRing1
              {
                OFFSET -8.82822 0.546677 1.51678
                CHANNELS 3 Zrotation Xrotation Yrotation
                JOINT rRing2
                {
                  OFFSET -2.60934 -0.819778 -0.0198488
                  CHANNELS 3 Zrotation Xrotation Yrotation
                  End Site
                  {
                    OFFSET -2.33842 -0.294052 0.168128
                  }
                }
              }
              JOINT rPinky1
              {
                OFFSET -8.27202 -0.0477905 -0.4584
                CHANNELS 3 Zrotation Xrotation Yrotation
                JOINT rPinky2
                {
                  OFFSET -1.82734 -0.647385 -0.700984
                  CHANNELS 3 Zrotation Xrotation Yrotation
                  End Site
                  {
                    OFFSET -1.69225 -0.51767 -0.607171
                  }
                }
              }
            }
          }
        }
      }
      JOINT lCollar
      {
        OFFSET 2.68224 19.2634 -4.8768
        CHANNELS 3 Zrotation Xrotation Yrotation
        JOINT lShldr
        {
          OFFSET 8.77824 -1.95073 1.46304
          CHANNELS 3 Zrotation Xrotation Yrotation
          JOINT lForeArm
          {
            OFFSET 28.1742 -1.7115 0.48768
            CHANNELS 3 Zrotation Xrotation Yrotation
            JOINT lHand
            {
              OFFSET 22.5879 0.773209 7.07136
              CHANNELS 3 Zrotation Xrotation Yrotation
              JOINT lThumb1
              {
                OFFSET 1.2192 -0.487915 3.41376
                CHANNELS 3 Zrotation Xrotation Yrotation
                JOINT lThumb2
                {
                  OFFSET 3.37035 -0.52449 3.41376
                  CHANNELS 3 Zrotation Xrotation Yrotation
                  End Site
                  {
                    OFFSET 1.78271 -1.18214 1.43049
                  }
                }
              }
              JOINT lIndex1
              {
                OFFSET 7.75947 0.938293 5.60832
                CHANNELS 3 Zrotation Xrotation Yrotation
                JOINT lIndex2
                {
                  OFFSET 2.54057 -0.884171 1.56538
                  CHANNELS 3 Zrotation Xrotation Yrotation
                  End Site
                  {
                    OFFSET 1.62519 -0.234802 1.16502
                  }
                }
              }
              JOINT lMid1
              {
                OFFSET 8.24714 1.18213 3.41376
                CHANNELS 3 Zrotation Xrotation Yrotation
                JOINT lMid2
                {
                  OFFSET 3.10165 -0.590103 1.0647
                  CHANNELS 3 Zrotation Xrotation Yrotation
                  End Site
                  {
                    OFFSET 2.48547 -0.328903 0.83742
                  }
                }
              }
              JOINT lRing1
              {
                OFFSET 8.82822 0.546677 1.51678
                CHANNELS 3 Zrotation Xrotation Yrotation
                JOINT lRing2
                {
                  OFFSET 2.60934 -0.819778 -0.0198488
                  CHANNELS 3 Zrotation Xrotation Yrotation
                  End Site
                  {
                    OFFSET 2.33842 -0.294052 0.168128
                  }
                }
              }
              JOINT lPinky1
              {
                OFFSET 8.27202 -0.0477905 -0.4584
                CHANNELS 3 Zrotation Xrotation Yrotation
                JOINT lPinky2
                {
                  OFFSET 1.82734 -0.647385 -0.700984
                  CHANNELS 3 Zrotation Xrotation Yrotation
                  End Site
                  {
                    OFFSET 1.69225 -0.51767 -0.607171
                  }
                }
              }
            }
          }
        }
      }
    }
  }
  JOINT rButtock
  {
    OFFSET -8.77824 4.35084 1.2192
    CHANNELS 3 Zrotation Xrotation Yrotation
    JOINT rThigh
    {
      OFFSET 0 -1.70687 -2.19456
      CHANNELS 3 Zrotation Xrotation Yrotation
      JOINT rShin
      {
        OFFSET 0 -36.8199 0.73152
        CHANNELS 3 Zrotation Xrotation Yrotation
        JOINT rFoot
        {
          OFFSET 0.73152 -45.1104 -5.12064
          CHANNELS 3 Zrotation Xrotation Yrotation
          End Site
          {
            OFFSET -1.1221 -3.69964 12.103
          }
        }
      }
    }
  }
  JOINT lButtock
  {
    OFFSET 8.77824 4.35084 1.2192
    CHANNELS 3 Zrotation Xrotation Yrotation
    JOINT lThigh
    {
      OFFSET 0 -1.70687 -2.19456
      CHANNELS 3 Zrotation Xrotation Yrotation
      JOINT lShin
      {
        OFFSET 0 -36.8199 0.73152
        CHANNELS 3 Zrotation Xrotation Yrotation
        JOINT lFoot
        {
          OFFSET -0.73152 -45.1104 -5.12064
          CHANNELS 3 Zrotation Xrotation Yrotation
          End Site
          {
            OFFSET 1.1221 -3.69964 12.103
          }
        }
      }
    }
  }
}
MOTION
Frames:	5
Frame Time:	0.00833333
2.2947 82.8564 -0.111757 2.1771 -30.7977 2.7578 -4.96619 2.80842 -3.13991 4.24333 -0.661894 -1.01482 -10.8174 -5.97829 -0.349199 13.7106 -26.89 6.65778 -0.0 0.0 0.0 -0.0 0.0 0.0 8.86577e-14 8.34857e-15 -8.5552e-13 71.2753 16.7731 -1.81673 -17.9325 -10.6142 33.8688 -0.266966 14.5519 2.09074 2.74643e-09 -3.96678e-09 -3.17496e-10 4.74228e-09 -6.86588e-09 -5.86198e-10 2.74644e-09 -3.96678e-09 -3.17518e-10 7.73091 5.47488 0.417314 2.74643e-09 -3.96678e-09 -3.17505e-10 2.90554 0.965183 0.102902 2.74644e-09 -3.96678e-09 -3.17501e-10 10.2786 0.731801 0.0259123 2.74642e-09 -3.96678e-09 -3.17493e-10 2.22167 -0.733487 -0.20892 8.86143e-14 8.34896e-15 -8.55768e-13 -18.5701 -4.96135 -60.3087 27.9038 -40.8939 -85.539 0.0259111 -4.59019 0.646507 4.1387e-10 -1.48175e-09 -1.48519e-09 7.20154e-10 -2.55115e-09 -2.56009e-09 4.13867e-10 -1.48175e-09 -1.48517e-09 -7.73091 5.47488 -0.417314 4.13872e-10 -1.48175e-09 -1.48519e-09 -2.90554 0.965183 -0.102902 4.13867e-10 -1.48175e-09 -1.48518e-09 -10.2786 0.731801 -0.0259123 4.13868e-10 -1.48175e-09 -1.48519e-09 -2.22167 -0.733487 0.20892 -2.03217e-16 0.0 -3.88251e-19 -11.396 -15.32 2.80753 -0.137151 22.2301 0.465261 -2.98529 -9.27349 -10.0934 2.03217e-16 0.0 3.88251e-19 -4.60431 -9.45381 2.12278 -0.0208308 19.2531 -0.388203 1.49048 -8.35828 6.86815
2.32294 82.858 -0.186608 2.1883 -30.8659 2.8188 -4.99238 2.9375 -3.26008 4.2316 -0.616489 -1.05261 -10.9203 -5.85093 -0.383707 13.7702 -26.6071 6.5871 -0.0 0.0 0.0 -0.0 0.0 0.0 3.93425e-14 -1.41738e-14 -7.72976e-13 71.3031 16.8568 -1.82913 -17.9718 -10.6564 33.9566 -0.26308 14.4498 2.07541 2.59655e-09 -3.42958e-09 -7.57903e-11 4.48593e-09 -5.93767e-09 -1.66096e-10 2.59655e-09 -3.42958e-09 -7.58105e-11 7.73091 5.47488 0.417314 2.59655e-09 -3.42957e-09 -7.57988e-11 2.90554 0.965183 0.102902 2.59656e-09 -3.42958e-09 -7.57951e-11 10.2786 0.731801 0.0259123 2.59654e-09 -3.42957e-09 -7.57855e-11 2.22167 -0.733487 -0.20892 3.93307e-14 -1.41719e-14 -7.7319e-13 -18.7364 -4.24674 -60.2536 27.8773 -41.0175 -85.7652 0.0276616 -4.74184 0.667963 4.55258e-10 -1.16639e-09 -1.35112e-09 7.90895e-10 -2.00638e-09 -2.32897e-09 4.55255e-10 -1.16639e-09 -1.35111e-09 -7.73091 5.47488 -0.417314 4.5526e-10 -1.16639e-09 -1.35112e-09 -2.90554 0.965183 -0.102902 4.55252e-10 -1.16639e-09 -1.35112e-09 -10.2786 0.731801 -0.0259123 4.55256e-10 -1.16639e-09 -1.35112e-09 -2.22167 -0.733487 0.20892 -2.03217e-16 0.0 -3.88251e-19 -11.4092 -15.2307 2.73396 -0.137064 22.1981 0.465116 -3.02283 -9.31199 -10.2112 2.03217e-16 0.0 3.88251e-19 -4.60251 -9.44347 2.03132 -0.0203815 19.2123 -0.386293 1.45885 -8.30126 6.73543
2.36783 82.8663 -0.22768 2.1888 -30.5534 2.8201 -4.99559 3.10478 -3.42582 4.20666 -0.564111 -1.10442 -11.0632 -5.74412 -0.43668 13.8974 -26.3136 6.51243 -0.0 0.0 0.0 -0.0 0.0 0.0 -3.35999e-14 -4.05786e-14 -5.98677e-13 71.3252 16.9526 -1.84902 -18.0198 -10.7081 34.0643 -0.257503 14.3007 2.05305 2.19156e-09 -2.39656e-09 2.12476e-10 3.78929e-09 -4.15173e-09 3.37779e-10 2.19156e-09 -2.39656e-09 2.12461e-10 7.73091 5.47488 0.417314 2.19156e-09 -2.39656e-09 2.1247e-10 2.90554 0.965183 0.102902 2.19157e-09 -2.39656e-09 2.12473e-10 10.2786 0.731801 0.0259123 2.19155e-09 -2.39656e-09 2.12483e-10 2.22167 -0.733487 -0.20892 -3.35667e-14 -4.05751e-14 -5.98857e-13 -18.9262 -3.53441 -60.2326 27.8502 -41.1405 -85.9908 0.0293693 -4.88715 0.688529 4.56409e-10 -6.98884e-10 -9.83115e-10 7.91096e-10 -1.19953e-09 -1.694e-09 4.56406e-10 -6.98883e-10 -9.83098e-10 -7.73091 5.47488 -0.417314 4.5641e-10 -6.98884e-10 -9.83109e-10 -2.90554 0.965183 -0.102902 4.564e-10 -6.98884e-10 -9.83106e-10 -10.2786 0.731801 -0.0259123 4.56407e-10 -6.98883e-10 -9.8311e-10 -2.22167 -0.733487 0.20892 -2.03217e-16 0.0 -3.88251e-19 -11.4162 -15.0677 2.64294 -0.136942 22.1496 0.465277 -3.08187 -9.38943 -10.3841 2.03217e-16 0.0 3.88251e-19 -4.59681 -9.40075 1.88238 -0.0197745 19.1623 -0.3835 1.41914 -8.22699 6.5672
2.41689 82.8953 -0.161485 2.2114 -29.7953 2.5543 -4.98679 3.27642 -3.58633 4.17803 -0.516009 -1.15449 -11.1972 -5.63963 -0.487232 14.0116 -26.012 6.43589 -0.0 0.0 0.0 -0.0 0.0 0.0 -1.02972e-13 -5.92182e-14 -4.05687e-13 71.3481 17.0471 -1.86896 -18.0683 -10.7604 34.1734 -0.252077 14.1524 2.03087 1.70258e-09 -1.27071e-09 4.53348e-10 2.94695e-09 -2.20491e-09 7.60722e-10 1.70259e-09 -1.27071e-09 4.53339e-10 7.73091 5.47488 0.417314 1.70258e-09 -1.27071e-09 4.53346e-10 2.90554 0.965183 0.102902 1.70259e-09 -1.27071e-09 4.53347e-10 10.2786 0.731801 0.0259123 1.70258e-09 -1.27071e-09 4.53357e-10 2.22167 -0.733487 -0.20892 -1.02902e-13 -5.92135e-14 -4.05842e-13 -19.1193 -2.81866 -60.2131 27.8226 -41.2627 -86.2156 0.0308781 -5.01129 0.706108 4.1545e-10 -2.60451e-10 -5.28481e-10 7.18129e-10 -4.43181e-10 -9.09413e-10 4.15448e-10 -2.60451e-10 -5.28465e-10 -7.73091 5.47488 -0.417314 4.15451e-10 -2.60452e-10 -5.28472e-10 -2.90554 0.965183 -0.102902 4.1544e-10 -2.60451e-10 -5.28471e-10 -10.2786 0.731801 -0.0259123 4.15451e-10 -2.6045e-10 -5.28476e-10 -2.22167 -0.733487 0.20892 -2.03217e-16 0.0 -3.88251e-19 -11.4134 -14.9028 2.5538 -0.136804 22.0943 0.465213 -3.13987 -9.46157 -10.5552 2.03217e-16 0.0 3.88251e-19 -4.58411 -9.36418 1.72257 -0.0192422 19.1237 -0.380876 1.38316 -8.15332 6.41429
2.4237 82.9052 -0.202432 2.1577 -29.8019 2.5778 -4.97787 3.41867 -3.69073 4.15516 -0.483433 -1.18707 -11.2736 -5.51928 -0.514485 14.0324 -25.7049 6.35956 -0.0 0.0 0.0 -0.0 0.0 0.0 -1.41578e-13 -5.84448e-14 -2.67067e-13 71.3778 17.1268 -1.88152 -18.1092 -10.8046 34.2657 -0.248508 14.053 2.01602 1.30075e-09 -4.5501e-10 5.52873e-10 2.25352e-09 -7.94022e-10 9.38028e-10 1.30075e-09 -4.55005e-10 5.52866e-10 7.73091 5.47488 0.417314 1.30075e-09 -4.55008e-10 5.52873e-10 2.90554 0.965183 0.102902 1.30076e-09 -4.55009e-10 5.52873e-10 10.2786 0.731801 0.0259123 1.30074e-09 -4.5501e-10 5.52882e-10 2.22167 -0.733487 -0.20892 -1.41501e-13 -5.844e-14 -2.67216e-13 -19.2968 -2.09105 -60.1634 27.7944 -41.384 -86.4395 0.0319999 -5.09945 0.718598 3.30513e-10 -3.232e-11 -1.34544e-10 5.69365e-10 -4.9922e-11 -2.2942e-10 3.30511e-10 -3.23208e-11 -1.34528e-10 -7.73091 5.47488 -0.417314 3.30513e-10 -3.23216e-11 -1.34534e-10 -2.90554 0.965183 -0.102902 3.30502e-10 -3.23205e-11 -1.34534e-10 -10.2786 0.731801 -0.0259123 3.30515e-10 -3.23196e-11 -1.34541e-10 -2.22167 -0.733487 0.20892 -2.03217e-16 0.0 -3.88251e-19 -11.3975 -14.8077 2.48561 -0.136673 22.042 0.46439 -3.17349 -9.4844 -10.6673 2.03217e-16 0.0 3.88251e-19 -4.56185 -9.3724 1.5984 -0.0190232 19.117 -0.379474 1.36225 -8.09818 6.32744
